<svg width="59" height="58" viewBox="0 0 59 58" fill="none" xmlns="http://www.w3.org/2000/svg">
<path fill-rule="evenodd" clip-rule="evenodd" d="M25 24C25 24.5523 24.5523 25 24 25H1C0.447716 25 0 24.5523 0 24V1C0 0.447716 0.447715 0 1 0H24C24.5523 0 25 0.447715 25 1V24ZM9 8C8.44772 8 8 8.44772 8 9V16C8 16.5523 8.44772 17 9 17H16C16.5523 17 17 16.5523 17 16V9C17 8.44772 16.5523 8 16 8H9Z" fill="#D9D9D9"/>
<path fill-rule="evenodd" clip-rule="evenodd" d="M58 24C58 24.5523 57.5523 25 57 25H34C33.4477 25 33 24.5523 33 24V1C33 0.447716 33.4477 0 34 0H57C57.5523 0 58 0.447715 58 1V24ZM42 8C41.4477 8 41 8.44772 41 9V16C41 16.5523 41.4477 17 42 17H49C49.5523 17 50 16.5523 50 16V9C50 8.44772 49.5523 8 49 8H42Z" fill="#D9D9D9"/>
<path fill-rule="evenodd" clip-rule="evenodd" d="M25 57C25 57.5523 24.5523 58 24 58H1C0.447716 58 0 57.5523 0 57V34C0 33.4477 0.447715 33 1 33H24C24.5523 33 25 33.4477 25 34V57ZM9 41C8.44772 41 8 41.4477 8 42V49C8 49.5523 8.44772 50 9 50H16C16.5523 50 17 49.5523 17 49V42C17 41.4477 16.5523 41 16 41H9Z" fill="#D9D9D9"/>
<path d="M42 33C42.5523 33 43 33.4477 43 34V41H49V34C49 33.4477 49.4477 33 50 33H58C58.5523 33 59 33.4477 59 34V42C59 42.5523 58.5523 43 58 43H51V48H58C58.5523 48 59 48.4477 59 49V57C59 57.5523 58.5523 58 58 58H50C49.4477 58 49 57.5523 49 57V50H43V57C43 57.5523 42.5523 58 42 58H34C33.4477 58 33 57.5523 33 57V49C33 48.4477 33.4477 48 34 48H41V43H34C33.4477 43 33 42.5523 33 42V34C33 33.4477 33.4477 33 34 33H42Z" fill="#D9D9D9"/>
</svg>
