<svg width="55" height="54" viewBox="0 0 55 54" fill="none" xmlns="http://www.w3.org/2000/svg">
<path d="M24 29C24.5523 29 25 29.4477 25 30V53C25 53.5523 24.5523 54 24 54H1C0.447716 54 0 53.5523 0 53V30C2.89915e-07 29.4477 0.447715 29 1 29H24ZM38 29C38.5523 29 39 29.4477 39 30V37H45V30C45 29.4477 45.4477 29 46 29H54C54.5523 29 55 29.4477 55 30V38C55 38.5523 54.5523 39 54 39H47V44H54C54.5523 44 55 44.4477 55 45V53C55 53.5523 54.5523 54 54 54H46C45.4477 54 45 53.5523 45 53V46H39V53C39 53.5523 38.5523 54 38 54H30C29.4477 54 29 53.5523 29 53V45C29 44.4477 29.4477 44 30 44H37V39H30C29.4477 39 29 38.5523 29 38V30C29 29.4477 29.4477 29 30 29H38ZM9 37C8.44772 37 8 37.4477 8 38V45C8 45.5523 8.44772 46 9 46H16C16.5523 46 17 45.5523 17 45V38C17 37.4477 16.5523 37 16 37H9ZM24 0C24.5523 2.89915e-07 25 0.447715 25 1V24C25 24.5523 24.5523 25 24 25H1C0.447716 25 0 24.5523 0 24V1C2.89915e-07 0.447716 0.447715 0 1 0H24ZM53 0C53.5523 2.89915e-07 54 0.447715 54 1V24C54 24.5523 53.5523 25 53 25H30C29.4477 25 29 24.5523 29 24V1C29 0.447716 29.4477 0 30 0H53ZM9 8C8.44772 8 8 8.44772 8 9V16C8 16.5523 8.44772 17 9 17H16C16.5523 17 17 16.5523 17 16V9C17 8.44772 16.5523 8 16 8H9ZM38 8C37.4477 8 37 8.44772 37 9V16C37 16.5523 37.4477 17 38 17H45C45.5523 17 46 16.5523 46 16V9C46 8.44772 45.5523 8 45 8H38Z" fill="#D9D9D9"/>
</svg>
